<svg width="319" height="285" viewBox="0 0 319 285" fill="none" xmlns="http://www.w3.org/2000/svg">
<mask id="mask0_55_3663" style="mask-type:alpha" maskUnits="userSpaceOnUse" x="0" y="0" width="319" height="285">
<rect width="319" height="285" fill="#D9D9D9"/>
</mask>
<g mask="url(#mask0_55_3663)">
<g filter="url(#filter0_d_55_3663)">
<path d="M282.889 88.9061H282.444V42.2047C282.444 26.7198 269.891 14.1672 254.406 14.1672H84.4594C68.9747 14.1672 56.4219 26.7198 56.4219 42.2047V88.9061H55.9767C53.9552 88.9061 52.3164 90.5439 52.3164 92.567V124.871C52.3164 126.894 53.9552 128.532 55.9767 128.532H56.4219V136.237H55.9767C53.9552 136.237 52.3164 137.875 52.3164 139.898V172.202C52.3164 174.225 53.9552 175.863 55.9767 175.863H56.4219V402.636C56.4219 418.121 68.9747 430.674 84.4594 430.674H254.406C269.891 430.674 282.444 418.121 282.444 402.636V148.345H282.889C284.912 148.345 286.55 146.707 286.55 144.684V92.567C286.55 90.5439 284.912 88.9061 282.889 88.9061Z" fill="url(#paint0_linear_55_3663)"/>
</g>
<path d="M251.933 422.515H87.7726C75.1957 422.515 65 412.32 65 399.743V43.8736C65 31.2968 75.1957 21.1019 87.7726 21.1019H251.933C264.51 21.1019 274.705 31.2968 274.705 43.8736V399.743C274.705 412.32 264.51 422.515 251.933 422.515Z" fill="black"/>
<path d="M63 217H106.975V152H148" stroke="url(#paint1_linear_55_3663)" stroke-width="2"/>
<path d="M194 152H237.975V87H279" stroke="url(#paint2_linear_55_3663)" stroke-width="2"/>
<path d="M196 123.721V123.739C196 123.372 195.858 123.019 195.604 122.755L180.122 106.64C179.854 106.361 179.484 106.203 179.098 106.203H178.811C179.198 106.203 179.567 106.361 179.835 106.64L195.317 122.755C195.571 123.019 195.713 123.372 195.713 123.739V192.414C195.713 194.729 193.948 196.632 191.691 196.852C191.641 196.854 191.591 196.855 191.54 196.855H147.421C144.958 196.855 142.961 194.859 142.961 192.396V110.645C142.961 108.51 144.46 106.726 146.463 106.288C146.522 106.275 146.581 106.264 146.641 106.253C146.894 106.209 147.155 106.185 147.421 106.185H153.475H179.098C179.484 106.185 179.854 106.343 180.122 106.622L195.604 122.737C195.858 123.002 196 123.353 196 123.721ZM143.554 191.982C143.554 194.402 145.509 196.364 147.92 196.364H191.115C193.527 196.364 195.482 194.402 195.482 191.982V123.934C195.482 123.612 195.357 123.301 195.135 123.07L192.741 120.569L194.925 123.025C195.128 123.254 195.241 123.55 195.241 123.856L195.185 191.255C195.185 193.674 193.599 195.799 191.223 195.799L147.942 195.892C145.313 195.874 143.554 193.674 143.554 191.255V191.982ZM153.397 185.299C154.42 186.478 155.784 187.2 157.28 187.2H158.885H159.33H166.229H166.675H173.792H174.236H180.42H180.864H182.471C185.635 187.2 188.21 183.972 188.21 180.004V163.262V162.818V160.913V160.468V143.727C188.21 141.423 187.341 139.368 185.994 138.05C184.972 136.872 183.609 136.151 182.113 136.151H180.508H180.063H173.878H173.433H169.517H166.316H165.873H158.973H158.528H156.922C153.758 136.151 151.184 139.379 151.184 143.346V160.088V160.533V162.438V162.882V179.624C151.184 181.926 152.051 183.981 153.397 185.299ZM187.517 182.045C186.906 184.495 185.227 186.344 183.18 186.695C185.194 186.218 186.839 184.418 187.517 182.045Z" fill="url(#paint3_linear_55_3663)"/>
<path d="M158.529 153.034L158.519 153.038L158.367 153.101L158.351 153.108L158.257 153.147L158.147 153.193C158.028 153.248 157.911 153.309 157.774 153.381L157.693 153.423L157.555 153.497C157.362 153.606 157.172 153.726 156.991 153.853L156.883 153.934C156.734 154.043 156.586 154.155 156.441 154.276L156.307 154.396C156.176 154.512 156.047 154.629 155.923 154.755L155.801 154.881C155.697 154.989 155.598 155.103 155.499 155.217L155.476 155.244L155.434 155.289L155.339 155.405C155.258 155.505 155.176 155.62 155.093 155.731L155.012 155.841L154.956 155.914L154.92 155.967L154.831 156.117C154.695 156.324 154.567 156.538 154.447 156.759C154.404 156.836 154.361 156.911 154.322 156.989C154.178 157.271 154.047 157.563 153.931 157.865C153.907 157.926 153.888 157.99 153.866 158.052C153.774 158.306 153.693 158.566 153.622 158.832C153.599 158.919 153.576 159.006 153.555 159.095C153.477 159.419 153.409 159.748 153.366 160.086H151.628V143.345C151.628 139.622 154.004 136.594 156.922 136.594H158.529V153.034ZM165.873 136.594V154.425C165.703 154.319 165.53 154.221 165.372 154.098C164.086 153.092 162.58 152.56 161.019 152.56H161.016H161.016L161.008 152.561C160.703 152.561 160.404 152.589 160.108 152.629C160.02 152.641 159.933 152.655 159.845 152.671C159.6 152.714 159.357 152.77 159.119 152.838L158.973 152.872V136.594H165.873ZM173.434 136.594V154.445C172.488 155.039 171.387 155.353 170.238 155.353H169.063C168.756 155.353 168.456 155.324 168.16 155.28C168.082 155.269 168.005 155.254 167.927 155.24C167.693 155.197 167.463 155.139 167.237 155.067C167.173 155.048 167.108 155.032 167.045 155.009C166.795 154.921 166.553 154.813 166.317 154.691V136.594H173.434ZM180.063 136.594V153.264V153.264L180.219 153.313C182.704 154.1 184.609 156.309 185.3 159.102C185.399 159.502 185.472 159.913 185.52 160.334L185.541 160.531H187.407V162.436H185.529H185.528L185.523 162.475L185.477 162.789L185.451 162.943L185.439 163.013C185.412 163.178 185.384 163.342 185.349 163.502L185.347 163.51C185.334 163.566 185.318 163.62 185.305 163.676C185.138 164.366 184.897 165.021 184.592 165.628L184.528 165.75C184.403 165.988 184.267 166.217 184.123 166.44C184.082 166.504 184.043 166.57 184 166.631C183.839 166.866 183.668 167.091 183.488 167.304C183.415 167.388 183.338 167.467 183.264 167.547C183.147 167.675 183.026 167.797 182.901 167.916C182.803 168.009 182.704 168.103 182.602 168.19C182.463 168.308 182.319 168.418 182.173 168.525C182.016 168.639 181.857 168.746 181.694 168.846C181.569 168.923 181.442 168.999 181.311 169.068C181.195 169.13 181.078 169.189 180.958 169.244C180.754 169.338 180.544 169.423 180.331 169.496L180.218 169.532C179.913 169.629 179.608 169.699 179.303 169.751L179.185 169.77C178.882 169.816 178.579 169.843 178.278 169.843C176.813 169.842 175.4 169.339 174.192 168.389L174.08 168.317C174.014 168.267 173.947 168.218 173.878 168.171V168.16L173.779 168.094L173.718 168.059L173.434 167.87V167.891C173.333 167.832 173.229 167.778 173.124 167.725C172.959 167.642 172.788 167.571 172.617 167.502C172.477 167.447 172.341 167.388 172.198 167.343C172.004 167.281 171.804 167.237 171.605 167.194C171.478 167.167 171.355 167.131 171.226 167.111C170.893 167.059 170.556 167.029 170.212 167.029H170.211H169.09C168.768 167.029 168.448 167.059 168.132 167.106C168.019 167.122 167.909 167.147 167.798 167.169C167.593 167.211 167.391 167.261 167.192 167.321C167.076 167.356 166.96 167.39 166.847 167.431C166.666 167.498 166.491 167.577 166.317 167.66V167.631L166.007 167.8L166.001 167.803L165.988 167.811L165.964 167.827L165.873 167.877V167.886C165.605 168.04 165.343 168.204 165.107 168.389C163.896 169.34 162.483 169.843 161.016 169.843L161.01 169.843C160.685 169.843 160.363 169.807 160.043 169.758C159.966 169.746 159.889 169.736 159.813 169.721C159.526 169.665 159.243 169.588 158.962 169.492C157.436 168.968 156.106 167.877 155.167 166.423C155.072 166.275 154.979 166.126 154.892 165.972C154.825 165.85 154.758 165.728 154.695 165.602C154.582 165.375 154.476 165.144 154.383 164.906C154.338 164.793 154.299 164.677 154.257 164.561C154.183 164.348 154.115 164.132 154.056 163.914C154.024 163.796 153.994 163.677 153.966 163.556C153.91 163.311 153.865 163.063 153.828 162.812C153.82 162.751 153.806 162.692 153.798 162.63L153.774 162.436H153.771H151.628V160.531H153.761H153.761L153.783 160.334L153.789 160.288C153.827 159.971 153.883 159.659 153.952 159.351C153.971 159.262 153.993 159.174 154.015 159.086C154.087 158.801 154.169 158.519 154.267 158.244L154.301 158.137C154.413 157.835 154.544 157.543 154.686 157.257C154.723 157.18 154.764 157.105 154.804 157.029C154.935 156.783 155.077 156.544 155.23 156.313C156.044 155.091 157.136 154.135 158.391 153.572L158.462 153.543C158.615 153.476 158.771 153.418 158.928 153.364C159.221 153.263 159.518 153.182 159.819 153.125C159.891 153.111 159.962 153.102 160.033 153.091C160.356 153.041 160.682 153.005 161.01 153.005L161.016 153.005C162.476 153.005 163.886 153.504 165.094 154.447C165.336 154.637 165.601 154.802 165.873 154.957V154.966L165.961 155.014L165.988 155.032L166.317 155.209V155.181C166.494 155.265 166.673 155.345 166.856 155.411C166.945 155.442 167.035 155.469 167.126 155.496C167.354 155.567 167.585 155.625 167.821 155.67C167.909 155.687 167.998 155.706 168.088 155.719C168.407 155.766 168.73 155.798 169.063 155.798H170.238H170.239C171.514 155.798 172.739 155.436 173.779 154.752L173.878 154.686V136.594H180.063ZM182.113 136.594C185.032 136.594 187.407 139.622 187.407 143.345V160.086H185.938C185.881 159.663 185.8 159.249 185.693 158.847C184.949 156.032 183.022 153.8 180.508 152.94V136.594H182.113ZM187.407 162.881V179.622C187.407 183.345 185.032 186.373 182.113 186.373H180.508V169.914C180.581 169.888 180.649 169.85 180.722 169.823C180.882 169.761 181.039 169.695 181.194 169.621C181.318 169.563 181.441 169.507 181.561 169.442C181.776 169.326 181.988 169.2 182.192 169.062C182.312 168.98 182.428 168.889 182.544 168.8C182.663 168.709 182.78 168.616 182.896 168.518C183.003 168.426 183.109 168.334 183.213 168.236C183.405 168.054 183.591 167.864 183.766 167.662C183.822 167.597 183.873 167.528 183.927 167.462C184.08 167.276 184.225 167.082 184.363 166.881C184.411 166.81 184.459 166.74 184.506 166.668C184.863 166.115 185.165 165.513 185.405 164.872L185.435 164.785C185.653 164.181 185.822 163.546 185.918 162.881H187.407ZM173.878 186.373V168.717L173.908 168.739C175.198 169.752 176.708 170.288 178.274 170.288H178.279H178.282C178.567 170.288 178.847 170.264 179.125 170.229L179.241 170.211C179.505 170.172 179.766 170.118 180.022 170.05L180.063 170.041V186.373H173.878ZM166.317 186.373V168.148C166.556 168.024 166.802 167.914 167.056 167.824C167.127 167.799 167.2 167.78 167.271 167.758C167.491 167.689 167.716 167.632 167.945 167.589C168.025 167.574 168.104 167.558 168.185 167.546C168.482 167.503 168.784 167.474 169.09 167.474H170.211C170.528 167.474 170.839 167.503 171.145 167.549C171.257 167.566 171.367 167.596 171.479 167.62C171.668 167.66 171.856 167.702 172.038 167.76C172.165 167.8 172.289 167.848 172.412 167.897C172.575 167.96 172.737 168.03 172.893 168.108C173.013 168.168 173.132 168.231 173.248 168.299C173.311 168.337 173.371 168.382 173.434 168.422V186.373H166.317ZM158.973 186.373V169.975C159.036 169.995 159.102 170.002 159.165 170.019C159.386 170.082 159.61 170.135 159.836 170.176C159.93 170.192 160.023 170.207 160.118 170.22C160.411 170.259 160.707 170.286 161.008 170.287L161.016 170.288H161.016H161.019C162.586 170.288 164.096 169.752 165.385 168.739C165.539 168.618 165.709 168.523 165.873 168.418V186.373H158.973ZM156.922 186.373C154.004 186.373 151.628 183.345 151.628 179.622V162.881H153.38C153.39 162.948 153.409 163.012 153.419 163.079C153.461 163.328 153.511 163.573 153.57 163.814C153.599 163.935 153.634 164.055 153.668 164.175C153.732 164.396 153.803 164.613 153.881 164.826C153.915 164.917 153.943 165.01 153.98 165.101C154.094 165.383 154.221 165.656 154.359 165.922C154.414 166.028 154.475 166.132 154.534 166.236C154.63 166.405 154.732 166.57 154.838 166.73C154.892 166.816 154.939 166.907 154.997 166.99C155.124 167.169 155.257 167.342 155.391 167.505L155.452 167.58C155.585 167.736 155.723 167.888 155.895 168.064L155.939 168.11C156.086 168.256 156.238 168.395 156.393 168.528L156.456 168.585C156.809 168.879 157.185 169.14 157.572 169.361C157.623 169.391 157.676 169.417 157.731 169.445L157.823 169.491C157.936 169.55 158.048 169.608 158.162 169.661C158.237 169.695 158.314 169.725 158.39 169.755L158.529 169.813V186.373H156.922ZM151.184 143.345V160.086V160.531V162.436V162.881V179.622C151.184 183.59 153.758 186.818 156.922 186.818H158.529H158.973H165.873H166.317H173.434H173.878H180.063H180.508H182.113C185.278 186.818 187.852 183.59 187.852 179.622V162.881V162.436V160.531V160.086V143.345C187.852 139.377 185.278 136.149 182.113 136.149H180.508H180.063H173.878H173.434H166.317H165.873H158.973H158.529H156.922C153.758 136.149 151.184 139.377 151.184 143.345Z" fill="#E80F0F"/>
<path d="M180.549 183.18H180.49V183.239H180.372V183.298H180.313V183.357H180.254V183.416H180.136V183.475H180.077V183.534H180.018V171.377H180.077V171.436H180.136V171.554H180.195V171.613H180.254V171.731H180.313V171.849H180.372V171.967H180.431V172.085H180.49V172.203H180.549V183.18ZM179.427 170.196H179.368V170.255H178.896V170.314H177.657V170.255H177.126V170.196H176.89V170.137H176.654V170.078H176.418V170.019H176.241V169.96H176.004V169.901H175.827V169.842H175.709V169.783H175.591V169.724H175.473V169.665H175.296V169.606H175.178V169.547H175.06V169.488H174.942V169.429H174.824V169.37H174.706V169.311H174.647V169.252H174.529V169.193H174.47V169.134H174.352V169.075H174.234V169.016H174.175V168.957H174.057V168.898H173.998V168.839H173.939V168.78H173.88V186.308H173.762V186.367H173.526V186.426H173.29V186.485H172.936V186.544H172.581V186.603H172.227V186.662H171.814V186.721H171.283V186.78H170.575V186.839H168.45V186.78H167.683V186.721H167.211V186.662H166.798V186.603H166.444V186.544H166.03V186.485H165.735V186.426H165.499V186.367H165.853V168.485H165.794V168.544H165.676V168.603H165.617V168.662H165.499V168.721H165.44V168.78H165.381V168.839H165.263V168.898H165.204V168.957H165.145V169.016H165.027V169.075H164.968V169.134H164.85V169.193H164.791V169.252H164.673V169.311H164.555V169.37H164.437V169.429H164.378V169.488H164.26V169.547H164.142V169.606H164.024V169.665H163.906V169.724H163.729V169.783H163.611V169.842H163.434V169.901H163.316V169.96H163.139V170.019H162.962V170.078H162.725V170.137H162.489V170.196H162.076V170.255H161.663V170.314H160.483V170.255H159.952V170.196H159.657V170.137H159.361V170.078H159.125V170.019H159.007V176.098H158.948V176.039H158.889V175.921H158.83V175.862H158.771V175.744H158.712V175.626H158.653V175.508H158.594V175.39H158.535V175.331H158.476V169.842H158.417V169.783H158.299V169.724H158.122V169.665H158.004V169.606H157.886V169.547H157.768V169.488H157.65V169.429H157.532V169.37H157.473V169.311H157.355V169.252H157.296V169.193H157.178V169.134H157.119V169.075H157.001V169.016H156.942V168.957H156.883V168.898H156.765V168.839H156.706V168.78H156.588V168.721H156.529V168.662H156.47V168.603H156.352V168.544H156.293V168.485H156.234V168.426H156.174V168.367H156.115V168.308H156.056V168.249H155.997V168.19H155.938V168.131H155.879V168.072H155.82V168.013H155.761V167.954H155.702V167.895H155.643V167.836H155.584V167.777H155.525V167.718H155.466V167.6H155.407V167.541H155.348V167.482H155.289V167.423H155.23V167.363H155.171V167.245H155.112V167.186H155.053V167.068H154.994V167.009H154.935V166.95H154.876V166.832H154.817V166.714H154.758V166.655H154.699V166.537H154.64V166.419H154.581V166.36H154.522V166.242H154.463V166.124H154.404V166.006H154.345V165.947H154.286V165.829H154.227V165.652H154.168V165.534H154.109V165.416H154.05V165.298H153.991V165.18H153.932V165.003H153.873V164.826H153.814V164.649H153.755V164.472H153.696V164.295H153.637V164.118H153.578V163.881H153.519V163.586H153.46V163.35H153.401V162.996H153.342V162.937H151.689V162.878H151.63V162.819H151.571V162.701H151.512V162.583H151.453V162.465H151.394V162.347H151.335V162.229H151.276V162.17H151.217V162.052H151.158V153.494H151.217V152.668H151.276V152.196H151.335V151.842H151.394V151.429H151.453V151.075H151.512V150.72H151.571V150.484H151.63V160.045H153.342V159.868H153.401V159.514H153.46V159.219H153.519V158.983H153.578V158.747H153.637V158.57H153.696V158.393H153.755V158.157H153.814V157.98H153.873V157.862H153.932V157.685H153.991V157.567H154.05V157.448H154.109V157.271H154.168V157.153H154.227V157.035H154.286V156.917H154.345V156.799H154.404V156.681H154.463V156.622H154.522V156.504H154.581V156.386H154.64V156.327H154.699V156.209H154.758V156.091H154.817V156.032H154.876V155.914H154.935V155.855H154.994V155.737H155.053V155.678H155.112V155.619H155.171V155.501H155.23V155.442H155.289V155.383H155.348V155.265H155.407V155.206H155.466V155.147H155.525V155.088H155.584V155.029H155.643V154.97H155.702V154.911H155.761V154.852H155.82V154.793H155.879V154.734H155.938V154.675H155.997V154.616H156.056V154.557H156.115V154.498H156.174V154.439H156.234V154.38H156.293V154.321H156.352V154.262H156.411V154.203H156.529V154.144H156.588V154.084H156.647V154.025H156.706V153.966H156.824V153.907H156.883V153.848H156.942V153.789H157.06V153.73H157.178V153.671H157.237V153.612H157.355V153.553H157.414V153.494H157.532V153.435H157.65V153.376H157.768V153.317H157.886V153.258H158.004V153.199H158.122V153.14H158.24V153.081H158.358V153.022H158.476V139.802H158.535V139.743H158.594V139.684H158.712V139.625H158.771V139.566H158.83V139.507H158.948V139.448H159.007V152.845H159.066V152.786H159.302V152.727H159.538V152.668H159.834V152.609H160.247V152.55H161.781V152.609H162.253V152.668H162.489V152.727H162.666V152.786H162.903V152.845H163.139V152.904H163.375V152.963H163.493V153.022H163.611V153.081H163.729V153.14H163.906V153.199H164.024V153.258H164.142V153.317H164.26V153.376H164.378V153.435H164.496V153.494H164.614V153.553H164.673V153.612H164.791V153.671H164.85V153.73H164.968V153.789H165.086V153.848H165.145V153.907H165.204V153.966H165.322V154.025H165.381V154.084H165.44V154.144H165.558V154.203H165.617V154.262H165.735V154.321H165.853V145.704H165.912V145.822H165.971V145.881H166.03V145.999H166.089V146.117H166.148V146.235H166.208V146.294H166.267V146.412H166.326V154.675H166.444V154.734H166.562V154.793H166.68V154.852H166.798V154.911H166.975V154.97H167.152V155.029H167.329V155.088H167.565V155.147H167.801V155.206H168.096V155.265H168.568V155.324H170.752V155.265H171.342V155.383H171.401V155.501H171.46V155.619H171.519V155.737H171.106V155.796H170.575V155.855H168.745V155.796H168.214V155.737H167.86V155.678H167.565V155.619H167.329V155.56H167.093V155.501H166.916V155.442H166.739V155.383H166.621V155.324H166.503V155.265H166.267V155.206H166.148V155.147H166.089V155.088H165.971V155.029H165.853V154.97H165.735V154.911H165.676V154.852H165.558V154.793H165.499V154.734H165.381V154.675H165.322V154.616H165.204V154.557H165.145V154.498H165.027V154.439H164.968V154.38H164.909V154.321H164.85V154.262H164.732V154.203H164.614V154.144H164.555V154.084H164.437V154.025H164.378V153.966H164.26V153.907H164.142V153.848H164.024V153.789H163.906V153.73H163.788V153.671H163.67V153.612H163.493V153.553H163.375V153.494H163.257V153.435H163.139V153.376H162.903V153.317H162.666V153.258H162.43V153.199H162.253V153.14H161.899V153.081H161.427V153.022H160.66V153.081H160.129V153.14H159.775V153.199H159.538V153.258H159.302V153.317H159.125V153.376H158.948V153.435H158.771V153.494H158.594V153.553H158.476V153.612H158.358V153.671H158.181V153.73H158.122V153.789H158.004V153.848H157.886V153.907H157.768V153.966H157.709V154.025H157.591V154.084H157.473V154.144H157.414V154.203H157.355V154.262H157.237V154.321H157.178V154.38H157.119V154.439H157.001V154.498H156.942V154.557H156.883V154.616H156.765V154.675H156.706V154.734H156.647V154.793H156.588V154.852H156.529V154.911H156.47V154.97H156.411V155.029H156.352V155.088H156.293V155.147H156.234V155.206H156.174V155.265H156.115V155.324H156.056V155.383H155.997V155.442H155.938V155.501H155.879V155.56H155.82V155.619H155.761V155.737H155.702V155.796H155.643V155.855H155.584V155.914H155.525V156.032H155.466V156.091H155.407V156.15H155.348V156.268H155.289V156.327H155.23V156.445H155.171V156.563H155.112V156.622H155.053V156.74H154.994V156.858H154.935V156.917H154.876V157.035H154.817V157.153H154.758V157.271H154.699V157.389H154.64V157.508H154.581V157.626H154.522V157.803H154.463V157.921H154.404V158.039H154.345V158.216H154.286V158.393H154.227V158.57H154.168V158.806H154.109V158.983H154.05V159.219H153.991V159.455H153.932V159.809H153.873V160.163H153.814V160.576H151.63V162.406H153.814V162.701H153.873V163.055H153.932V163.35H153.991V163.645H154.05V163.881H154.109V164.058H154.168V164.236H154.227V164.413H154.286V164.59H154.345V164.767H154.404V164.944H154.463V165.062H154.522V165.18H154.581V165.298H154.64V165.475H154.699V165.593H154.758V165.711H154.817V165.829H154.876V165.888H154.935V166.006H154.994V166.124H155.053V166.183H155.112V166.301H155.171V166.419H155.23V166.478H155.289V166.596H155.348V166.655H155.407V166.714H155.466V166.832H155.525V166.891H155.584V166.95H155.643V167.068H155.702V167.127H155.761V167.186H155.82V167.245H155.879V167.304H155.938V167.423H155.997V167.482H156.056V167.541H156.115V167.6H156.174V167.659H156.234V167.718H156.293V167.777H156.352V167.836H156.411V167.895H156.47V167.954H156.529V168.013H156.588V168.072H156.647V168.131H156.765V168.19H156.824V168.249H156.883V168.308H156.942V168.367H157.06V168.426H157.119V168.485H157.178V168.544H157.296V168.603H157.355V168.662H157.473V168.721H157.532V168.78H157.65V168.839H157.709V168.898H157.827V168.957H157.945V169.016H158.063V169.075H158.181V169.134H158.24V169.193H158.417V169.252H158.535V169.311H158.653V169.37H158.83V169.429H158.948V169.488H159.184V169.547H159.42V169.606H159.598V169.665H159.834V169.724H160.247V169.783H160.837V169.842H161.25V169.783H161.781V169.724H162.194V169.665H162.371V169.606H162.607V169.547H162.843V169.488H163.08V169.429H163.198V169.37H163.375V169.311H163.493V169.252H163.611V169.193H163.729V169.134H163.906V169.075H164.024V169.016H164.142V168.957H164.26V168.898H164.319V168.839H164.437V168.78H164.496V168.721H164.614V168.662H164.673V168.603H164.791V168.544H164.909V168.485H164.968V168.426H165.027V168.367H165.086V168.308H165.204V168.249H165.263V168.19H165.381V168.131H165.44V168.072H165.558V168.013H165.617V167.954H165.735V167.895H165.853V167.836H165.912V167.777H166.03V167.718H166.148V167.659H166.208V167.6H166.444V167.541H166.562V167.482H166.68V167.423H166.857V167.363H167.034V167.304H167.211V167.245H167.447V167.186H167.683V167.127H167.978V167.068H168.45V167.009H170.87V167.068H171.342V167.127H171.578V167.186H171.873V167.245H172.109V167.304H172.286V167.363H172.463V167.423H172.581V167.482H172.758V167.541H172.877V167.6H172.995V167.659H173.113V167.718H173.231V167.777H173.349V167.836H173.526V167.895H173.585V167.954H173.703V168.013H173.762V168.072H173.88V168.131H173.939V168.19H173.998V168.249H174.116V168.308H174.175V168.367H174.293V168.426H174.352V168.485H174.411V168.544H174.529V168.603H174.588V168.662H174.706V168.721H174.765V168.78H174.883V168.839H175.001V168.898H175.06V168.957H175.178V169.016H175.296V169.075H175.414V169.134H175.532V169.193H175.709V169.252H175.827V169.311H175.945V169.37H176.063V169.429H176.241V169.488H176.477V169.547H176.654V169.606H176.89V169.665H177.126V169.724H177.539V169.783H178.011V169.842H178.483V169.783H179.073V169.724H179.191V169.783H179.25V169.842H179.309V169.96H179.368V170.078H179.427V170.196ZM173.349 186.367H173.408V168.426H173.349V168.367H173.231V168.308H173.113V168.249H172.995V168.19H172.936V168.131H172.758V168.072H172.64V168.013H172.522V167.954H172.404V167.895H172.227V167.836H172.05V167.777H171.873V167.718H171.637V167.659H171.342V167.6H171.047V167.541H170.457V167.482H168.804V167.541H168.273V167.6H167.919V167.659H167.683V167.718H167.447V167.777H167.27V167.836H167.034V167.895H166.916V167.954H166.798V168.013H166.621V168.072H166.503V168.131H166.385V168.19H166.326V186.367H173.349Z" fill="#E80F0F"/>
<path d="M187.867 169.607H187.808V170.433H187.749V170.847H187.69V171.201H187.631V171.614H187.572V171.968H187.513V172.322H187.454V172.558H187.395V162.938H185.92V163.233H185.861V163.469H185.802V163.764H185.743V164.001H185.684V164.237H185.625V164.414H185.565V164.591H185.506V164.768H185.447V164.945H185.388V165.122H185.329V165.24H185.27V165.358H185.211V165.476H185.152V165.653H185.093V165.771H185.034V165.889H184.975V166.007H184.916V166.066H184.857V166.184H184.798V166.302H184.739V166.42H184.68V166.538H184.621V166.597H184.562V166.715H184.503V166.774H184.444V166.892H184.385V166.951H184.326V167.069H184.267V167.128H184.208V167.187H184.149V167.306H184.031V167.247H183.972V167.187H183.913V167.069H183.854V166.951H183.795V166.833H183.854V166.715H183.913V166.656H183.972V166.538H184.031V166.479H184.09V166.361H184.149V166.302H184.208V166.184H184.267V166.066H184.326V166.007H184.385V165.889H184.444V165.771H184.503V165.653H184.562V165.535H184.621V165.417H184.68V165.299H184.739V165.122H184.798V165.004H184.857V164.827H184.916V164.709H184.975V164.532H185.034V164.355H185.093V164.178H185.152V164.001H185.211V163.764H185.27V163.528H185.329V163.292H185.388V162.938H185.447V162.584H185.506V162.407H187.395V160.577H185.506V160.282H185.447V159.928H185.388V159.574H185.329V159.279H185.27V158.984H185.211V158.807H185.152V158.63H185.093V158.453H185.034V158.276H184.975V158.099H184.916V157.981H184.857V157.804H184.798V157.686H184.739V157.568H184.68V157.45H184.621V157.272H184.562V157.154H184.503V157.036H184.444V156.977H184.385V156.859H184.326V156.741H184.267V156.682H184.208V156.564H184.149V156.446H184.09V156.387H184.031V156.269H183.972V156.21H183.913V156.092H183.854V156.033H183.795V155.915H183.736V155.856H183.677V155.797H183.618V155.679H183.559V155.62H183.5V155.561H183.441V155.502H183.382V155.443H183.323V155.384H183.264V155.266H183.146V155.207H183.087V155.148H183.028V155.089H182.969V155.03H182.91V154.971H182.851V154.912H182.792V154.853H182.733V154.794H182.674V154.735H182.615V154.676H182.556V154.617H182.438V154.558H182.379V154.499H182.32V154.44H182.201V154.381H182.142V154.322H182.083V154.263H182.024V154.204H181.906V154.145H181.788V154.086H181.729V154.027H181.611V153.968H181.493V153.908H181.434V153.849H181.316V153.79H181.198V153.731H181.08V153.672H180.962V153.613H180.844V153.554H180.667V153.495H180.549V153.436H180.372V153.377H180.195V153.318H180.018V139.449H180.077V139.508H180.195V139.567H180.254V139.626H180.313V139.685H180.431V139.744H180.49V139.803H180.549V152.905H180.608V152.964H180.785V153.023H180.903V153.082H181.08V153.141H181.198V153.2H181.316V153.259H181.434V153.318H181.552V153.377H181.67V153.436H181.729V153.495H181.847V153.554H181.965V153.613H182.024V153.672H182.142V153.731H182.201V153.79H182.32V153.849H182.438V153.908H182.497V153.968H182.556V154.027H182.615V154.086H182.733V154.145H182.792V154.204H182.851V154.263H182.91V154.322H183.028V154.381H183.087V154.44H183.146V154.499H183.205V154.558H183.264V154.617H183.323V154.676H183.382V154.735H183.441V154.794H183.5V154.853H183.559V154.912H183.618V154.971H183.677V155.03H183.736V155.089H183.795V155.148H183.854V155.207H183.913V155.325H183.972V155.384H184.031V155.443H184.09V155.561H184.149V155.62H184.208V155.679H184.267V155.797H184.326V155.856H184.385V155.915H184.444V156.033H184.503V156.151H184.562V156.21H184.621V156.328H184.68V156.446H184.739V156.505H184.798V156.623H184.857V156.741H184.916V156.8H184.975V156.977H185.034V157.095H185.093V157.213H185.152V157.332H185.211V157.45H185.27V157.568H185.329V157.745H185.388V157.863H185.447V158.04H185.506V158.217H185.565V158.394H185.625V158.571H185.684V158.807H185.743V159.043H185.802V159.338H185.861V159.633H185.92V159.928H185.979V160.046H187.395V151.371H187.454V151.489H187.513V151.548H187.572V151.666H187.631V151.784H187.69V152.138H187.749V152.551H187.808V153.318H187.867V169.607ZM173.88 149.187H173.821V149.069H173.762V148.951H173.703V148.833H173.644V148.715H173.585V148.656H173.526V148.538H173.467V148.42H173.408V136.616H167.093V136.557H167.034V136.439H166.975V136.321H167.093V136.262H167.565V136.203H168.273V136.144H170.752V136.203H171.519V136.262H171.932V136.321H172.286V136.38H172.7V136.439H173.054V136.498H173.349V136.557H173.585V136.616H173.821V136.675H173.88" fill="#E80F0F"/>
<path d="M174.375 127.053H174.57V128.986H174.375V128.126H171.335C171.275 128.126 171.212 128.122 171.145 128.117L171.878 128.943L171.902 129.017L171.871 129.075L171.764 129.152L170.809 128.07V127.871H174.375V127.053Z" fill="white"/>
<path d="M174.332 123.991L174.358 123.925L174.422 123.9H174.57V126.318H174.481L174.421 126.303L174.369 126.265L173.075 124.987C172.967 124.881 172.863 124.782 172.762 124.693C172.662 124.603 172.561 124.524 172.459 124.459C172.356 124.392 172.251 124.341 172.143 124.304C172.035 124.267 171.92 124.248 171.799 124.248C171.662 124.248 171.542 124.271 171.441 124.317C171.339 124.363 171.256 124.424 171.19 124.499C171.124 124.575 171.076 124.664 171.045 124.764C171.013 124.865 170.997 124.969 170.997 125.076C170.997 125.194 171.014 125.303 171.052 125.404C171.088 125.503 171.137 125.591 171.203 125.668C171.267 125.745 171.344 125.808 171.433 125.859C171.521 125.909 171.619 125.944 171.725 125.963L171.802 126.012L171.814 126.095L171.794 126.226C171.634 126.202 171.49 126.158 171.364 126.094C171.24 126.028 171.134 125.945 171.048 125.844C170.961 125.744 170.895 125.627 170.85 125.495C170.805 125.362 170.782 125.22 170.782 125.066C170.782 124.923 170.803 124.787 170.845 124.657C170.886 124.527 170.95 124.412 171.032 124.313C171.116 124.214 171.222 124.134 171.347 124.076C171.474 124.017 171.622 123.988 171.791 123.988C171.933 123.988 172.064 124.01 172.184 124.053C172.305 124.096 172.421 124.155 172.532 124.229C172.643 124.304 172.751 124.39 172.856 124.488C172.962 124.586 173.068 124.688 173.179 124.796L174.375 125.968C174.361 125.912 174.35 125.853 174.343 125.793C174.336 125.731 174.332 125.67 174.332 125.608V123.991Z" fill="white"/>
<path d="M171.794 123.139C171.634 123.117 171.49 123.072 171.365 123.007C171.24 122.941 171.134 122.858 171.048 122.758C170.961 122.657 170.895 122.541 170.85 122.408C170.805 122.276 170.782 122.133 170.782 121.98C170.782 121.837 170.802 121.702 170.842 121.575C170.881 121.448 170.941 121.336 171.021 121.24C171.099 121.144 171.199 121.068 171.318 121.012C171.436 120.957 171.573 120.929 171.727 120.929C171.849 120.929 171.959 120.948 172.057 120.985C172.155 121.022 172.241 121.073 172.315 121.14C172.389 121.205 172.452 121.284 172.501 121.373C172.551 121.464 172.591 121.562 172.617 121.667C172.668 121.392 172.774 121.184 172.936 121.044C173.097 120.904 173.299 120.834 173.541 120.834C173.695 120.834 173.837 120.864 173.969 120.926C174.099 120.988 174.213 121.073 174.308 121.181C174.404 121.288 174.479 121.415 174.533 121.562C174.587 121.708 174.613 121.867 174.613 122.038C174.613 122.251 174.584 122.43 174.527 122.571C174.47 122.714 174.394 122.83 174.303 122.922C174.211 123.014 174.108 123.085 173.995 123.137C173.882 123.188 173.767 123.229 173.654 123.261L173.612 123.161L173.602 123.072L173.663 123.004L173.762 122.969C173.807 122.953 173.857 122.932 173.911 122.904C173.967 122.875 174.023 122.839 174.079 122.794C174.137 122.748 174.189 122.693 174.238 122.624C174.285 122.557 174.324 122.475 174.354 122.38C174.384 122.284 174.398 122.171 174.398 122.04C174.398 121.882 174.371 121.743 174.319 121.624C174.266 121.504 174.199 121.405 174.116 121.325C174.034 121.244 173.942 121.184 173.841 121.145C173.74 121.105 173.641 121.085 173.546 121.085C173.431 121.085 173.325 121.103 173.226 121.14C173.127 121.176 173.041 121.236 172.97 121.32C172.899 121.406 172.843 121.517 172.801 121.656C172.76 121.794 172.739 121.965 172.739 122.168H172.557C172.552 122.005 172.531 121.863 172.491 121.739C172.452 121.616 172.398 121.512 172.328 121.429C172.259 121.346 172.178 121.284 172.082 121.241C171.987 121.198 171.882 121.177 171.767 121.177C171.635 121.177 171.52 121.2 171.423 121.244C171.326 121.288 171.245 121.348 171.183 121.422C171.119 121.495 171.072 121.582 171.042 121.681C171.012 121.78 170.997 121.883 170.997 121.991C170.997 122.109 171.015 122.218 171.052 122.319C171.088 122.42 171.137 122.508 171.203 122.584C171.267 122.662 171.344 122.725 171.433 122.777C171.522 122.828 171.619 122.863 171.725 122.882L171.802 122.927L171.814 123.01L171.794 123.139Z" fill="white"/>
<path d="M173.294 118.489H171.334L171.235 118.486L171.127 118.476L173.294 120.096V118.489ZM173.294 117.582H173.432L173.48 117.599L173.496 117.653V118.268H174.57V118.489H173.496V120.261L173.48 120.321L173.432 120.35L173.308 120.375L170.82 118.491V118.268H173.294V117.582Z" fill="white"/>
<path d="M179.049 127.08C178.746 127.08 178.486 127.108 178.271 127.167C178.056 127.225 177.88 127.303 177.743 127.401C177.606 127.5 177.506 127.614 177.443 127.746C177.379 127.877 177.347 128.015 177.347 128.16C177.347 128.304 177.379 128.443 177.443 128.572C177.506 128.703 177.606 128.818 177.743 128.917C177.88 129.016 178.056 129.094 178.271 129.152C178.486 129.21 178.746 129.24 179.049 129.24C179.355 129.24 179.615 129.21 179.829 129.152C180.044 129.094 180.22 129.016 180.356 128.917C180.493 128.818 180.592 128.703 180.655 128.572C180.717 128.443 180.749 128.304 180.749 128.16C180.749 128.015 180.717 127.877 180.655 127.746C180.592 127.614 180.493 127.5 180.356 127.401C180.22 127.303 180.044 127.225 179.829 127.167C179.615 127.108 179.355 127.08 179.049 127.08ZM179.049 126.815C179.378 126.815 179.661 126.851 179.902 126.921C180.142 126.991 180.34 127.087 180.497 127.21C180.655 127.331 180.771 127.473 180.848 127.637C180.925 127.8 180.963 127.974 180.963 128.16C180.963 128.345 180.925 128.518 180.848 128.682C180.771 128.844 180.655 128.986 180.497 129.107C180.34 129.229 180.142 129.324 179.902 129.394C179.661 129.464 179.378 129.5 179.049 129.5C178.721 129.5 178.437 129.464 178.197 129.394C177.957 129.324 177.759 129.229 177.602 129.107C177.445 128.986 177.328 128.844 177.251 128.682C177.174 128.518 177.135 128.345 177.135 128.16C177.135 127.974 177.174 127.8 177.251 127.637C177.328 127.473 177.445 127.331 177.602 127.21C177.759 127.087 177.957 126.991 178.197 126.921C178.437 126.851 178.721 126.815 179.049 126.815Z" fill="white"/>
<path d="M179.049 124.009C178.746 124.009 178.486 124.038 178.271 124.096C178.056 124.155 177.88 124.233 177.743 124.331C177.606 124.429 177.506 124.544 177.443 124.675C177.379 124.807 177.347 124.945 177.347 125.089C177.347 125.235 177.379 125.373 177.443 125.502C177.506 125.632 177.606 125.747 177.743 125.847C177.88 125.946 178.056 126.024 178.271 126.082C178.486 126.141 178.746 126.17 179.049 126.17C179.355 126.17 179.615 126.141 179.829 126.082C180.044 126.024 180.22 125.946 180.356 125.847C180.493 125.747 180.592 125.632 180.655 125.502C180.717 125.373 180.749 125.235 180.749 125.089C180.749 124.945 180.717 124.807 180.655 124.675C180.592 124.544 180.493 124.429 180.356 124.331C180.22 124.233 180.044 124.155 179.829 124.096C179.615 124.038 179.355 124.009 179.049 124.009ZM179.049 123.744C179.378 123.744 179.661 123.78 179.902 123.85C180.142 123.921 180.34 124.017 180.497 124.139C180.655 124.261 180.771 124.403 180.848 124.567C180.925 124.729 180.963 124.904 180.963 125.089C180.963 125.275 180.925 125.448 180.848 125.611C180.771 125.774 180.655 125.915 180.497 126.037C180.34 126.159 180.142 126.255 179.902 126.325C179.661 126.394 179.378 126.429 179.049 126.429C178.721 126.429 178.437 126.394 178.197 126.325C177.957 126.255 177.759 126.159 177.602 126.037C177.445 125.915 177.328 125.774 177.251 125.611C177.174 125.448 177.135 125.275 177.135 125.089C177.135 124.904 177.174 124.729 177.251 124.567C177.328 124.403 177.445 124.261 177.602 124.139C177.759 124.017 177.957 123.921 178.197 123.85C178.437 123.78 178.721 123.744 179.049 123.744Z" fill="white"/>
<path d="M179.049 120.939C178.746 120.939 178.486 120.969 178.271 121.027C178.056 121.086 177.88 121.164 177.743 121.262C177.606 121.36 177.506 121.474 177.443 121.605C177.379 121.737 177.347 121.876 177.347 122.02C177.347 122.164 177.379 122.302 177.443 122.433C177.506 122.563 177.606 122.678 177.743 122.777C177.88 122.876 178.056 122.954 178.271 123.013C178.486 123.071 178.746 123.1 179.049 123.1C179.355 123.1 179.615 123.071 179.829 123.013C180.044 122.954 180.22 122.876 180.356 122.777C180.493 122.678 180.592 122.563 180.655 122.433C180.717 122.302 180.749 122.164 180.749 122.02C180.749 121.876 180.717 121.737 180.655 121.605C180.592 121.474 180.493 121.36 180.356 121.262C180.22 121.164 180.044 121.086 179.829 121.027C179.615 120.969 179.355 120.939 179.049 120.939ZM179.049 120.675C179.378 120.675 179.661 120.711 179.902 120.781C180.142 120.851 180.34 120.948 180.497 121.07C180.655 121.192 180.771 121.333 180.848 121.497C180.925 121.66 180.963 121.834 180.963 122.02C180.963 122.205 180.925 122.379 180.848 122.541C180.771 122.704 180.655 122.846 180.497 122.968C180.34 123.089 180.142 123.185 179.902 123.255C179.661 123.324 179.378 123.359 179.049 123.359C178.721 123.359 178.437 123.324 178.197 123.255C177.957 123.185 177.759 123.089 177.602 122.968C177.445 122.846 177.328 122.704 177.251 122.541C177.174 122.379 177.135 122.205 177.135 122.02C177.135 121.834 177.174 121.66 177.251 121.497C177.328 121.333 177.445 121.192 177.602 121.07C177.759 120.948 177.957 120.851 178.197 120.781C178.437 120.711 178.721 120.675 179.049 120.675Z" fill="white"/>
<path d="M179.049 117.869C178.746 117.869 178.486 117.898 178.271 117.956C178.056 118.014 177.88 118.093 177.743 118.19C177.606 118.288 177.506 118.404 177.443 118.535C177.379 118.666 177.347 118.805 177.347 118.948C177.347 119.094 177.379 119.232 177.443 119.362C177.506 119.492 177.606 119.607 177.743 119.707C177.88 119.805 178.056 119.884 178.271 119.942C178.486 120 178.746 120.029 179.049 120.029C179.355 120.029 179.615 120 179.829 119.942C180.044 119.884 180.22 119.805 180.356 119.707C180.493 119.607 180.592 119.492 180.655 119.362C180.717 119.232 180.749 119.094 180.749 118.948C180.749 118.805 180.717 118.666 180.655 118.535C180.592 118.404 180.493 118.288 180.356 118.19C180.22 118.093 180.044 118.014 179.829 117.956C179.615 117.898 179.355 117.869 179.049 117.869ZM179.049 117.604C179.378 117.604 179.661 117.64 179.902 117.711C180.142 117.781 180.34 117.877 180.497 117.998C180.655 118.12 180.771 118.263 180.848 118.427C180.925 118.589 180.963 118.764 180.963 118.948C180.963 119.135 180.925 119.308 180.848 119.471C180.771 119.633 180.655 119.776 180.497 119.897C180.34 120.018 180.142 120.114 179.902 120.184C179.661 120.254 179.378 120.289 179.049 120.289C178.721 120.289 178.437 120.254 178.197 120.184C177.957 120.114 177.759 120.018 177.602 119.897C177.445 119.776 177.328 119.633 177.251 119.471C177.174 119.308 177.135 119.135 177.135 118.948C177.135 118.764 177.174 118.589 177.251 118.427C177.328 118.263 177.445 118.12 177.602 117.998C177.759 117.877 177.957 117.781 178.197 117.711C178.437 117.64 178.721 117.604 179.049 117.604Z" fill="white"/>
</g>
<defs>
<filter id="filter0_d_55_3663" x="12.3164" y="-21.833" width="314.233" height="496.507" filterUnits="userSpaceOnUse" color-interpolation-filters="sRGB">
<feFlood flood-opacity="0" result="BackgroundImageFix"/>
<feColorMatrix in="SourceAlpha" type="matrix" values="0 0 0 0 0 0 0 0 0 0 0 0 0 0 0 0 0 0 127 0" result="hardAlpha"/>
<feOffset dy="4"/>
<feGaussianBlur stdDeviation="20"/>
<feComposite in2="hardAlpha" operator="out"/>
<feColorMatrix type="matrix" values="0 0 0 0 0 0 0 0 0 0 0 0 0 0 0 0 0 0 0.5 0"/>
<feBlend mode="normal" in2="BackgroundImageFix" result="effect1_dropShadow_55_3663"/>
<feBlend mode="normal" in="SourceGraphic" in2="effect1_dropShadow_55_3663" result="shape"/>
</filter>
<linearGradient id="paint0_linear_55_3663" x1="169.433" y1="486.816" x2="169.433" y2="14.1672" gradientUnits="userSpaceOnUse">
<stop stop-color="#7F0011"/>
<stop offset="1" stop-color="#C02714"/>
</linearGradient>
<linearGradient id="paint1_linear_55_3663" x1="63" y1="216.558" x2="147.285" y2="216.558" gradientUnits="userSpaceOnUse">
<stop stop-color="#E80F0F" stop-opacity="0"/>
<stop offset="0.544792" stop-color="#E80F0F"/>
<stop offset="1" stop-color="#E80F0F" stop-opacity="0"/>
</linearGradient>
<linearGradient id="paint2_linear_55_3663" x1="194" y1="151.558" x2="278.285" y2="151.558" gradientUnits="userSpaceOnUse">
<stop stop-color="#E80F0F" stop-opacity="0"/>
<stop offset="0.544792" stop-color="#E80F0F"/>
<stop offset="1" stop-color="#E80F0F" stop-opacity="0"/>
</linearGradient>
<linearGradient id="paint3_linear_55_3663" x1="146.473" y1="214.972" x2="259.493" y2="151.111" gradientUnits="userSpaceOnUse">
<stop stop-color="#D41700"/>
<stop offset="1" stop-color="#7F0011"/>
</linearGradient>
</defs>
</svg>
