<svg width="289" height="718" viewBox="0 0 289 718" fill="none" xmlns="http://www.w3.org/2000/svg">
<g filter="url(#filter0_d_55_2284)">
<path d="M-207.544 500.852L-148.137 466.626L-11.5743 545.324L65.5068 500.778L-70.9074 421.931L-10.9059 388.001L184.47 500.778L-11.5743 614L-207.619 500.778L-207.544 500.852ZM189 424.529V492.834L-7.04449 379.76V329.497L52.3629 295.196V345.311L189 424.232V424.529ZM189 216.646V412.947L129.593 378.647V250.947L189 216.646ZM184.544 209.222L125.137 243.523L-11.5 164.676L-88.5811 209.222L47.9074 288.143L-12.0941 322.073L-207.544 209.148L-11.5743 96L184.544 209.148V209.222ZM-212 285.545V216.646L-15.9556 329.868V380.132L-75.363 414.432V364.169L-212 285.322V285.545ZM-212 295.716L-152.593 332.318V459.201L-212 493.428V295.493V295.716Z" fill="#232323" fill-opacity="0.5" shape-rendering="crispEdges"/>
</g>
<defs>
<filter id="filter0_d_55_2284" x="-312" y="0" width="601" height="718" filterUnits="userSpaceOnUse" color-interpolation-filters="sRGB">
<feFlood flood-opacity="0" result="BackgroundImageFix"/>
<feColorMatrix in="SourceAlpha" type="matrix" values="0 0 0 0 0 0 0 0 0 0 0 0 0 0 0 0 0 0 127 0" result="hardAlpha"/>
<feOffset dy="4"/>
<feGaussianBlur stdDeviation="50"/>
<feComposite in2="hardAlpha" operator="out"/>
<feColorMatrix type="matrix" values="0 0 0 0 0 0 0 0 0 0 0 0 0 0 0 0 0 0 0.5 0"/>
<feBlend mode="normal" in2="BackgroundImageFix" result="effect1_dropShadow_55_2284"/>
<feBlend mode="normal" in="SourceGraphic" in2="effect1_dropShadow_55_2284" result="shape"/>
</filter>
</defs>
</svg>
